<svg width="40" height="40" viewBox="0 0 40 40" fill="none" xmlns="http://www.w3.org/2000/svg">
<path d="M6.88039e-05 18.6669C-0.0129688 13.8744 1.82731 9.2614 5.13783 5.78827C8.44835 2.31514 12.974 0.249436 17.7729 0.02115C22.5717 -0.207136 27.2739 1.41959 30.9007 4.5627C34.5275 7.70581 36.7995 12.1232 37.2437 16.8952C36.3302 16.6502 35.4077 16.4399 34.4782 16.2647C33.9252 12.6459 32.1419 9.32671 29.4275 6.86343C29.1581 7.34227 28.8061 7.94615 28.4034 8.58727C27.5021 10.0238 26.2087 11.886 24.9153 12.8516C24.8702 12.8809 24.8297 12.9167 24.7953 12.9581C24.7953 13.0299 24.822 13.2267 25.022 13.6763C25.1109 13.8732 25.2265 14.1126 25.3687 14.3946C25.6087 14.8788 25.9074 15.4746 26.1767 16.137C25.2835 16.2708 24.4011 16.4691 23.5366 16.7303C23.3982 16.4315 23.2541 16.1352 23.1046 15.8418C22.9203 15.4809 22.7451 15.1155 22.5793 14.7457C22.3446 14.2137 22.0886 13.522 22.1339 12.7878C22.1873 11.9365 22.6193 11.2449 23.3153 10.7234C24.1607 10.0903 25.2247 8.64047 26.142 7.17468C26.5847 6.47503 26.9607 5.81795 27.2274 5.33911L27.2887 5.22738C24.7151 3.57935 21.7201 2.70566 18.6619 2.71078H18.5339C18.7765 3.18963 19.0432 3.76158 19.2832 4.39738C19.9339 6.1159 20.5206 8.63249 19.4725 10.8565C18.5099 12.9048 16.8485 13.4369 15.6058 13.7561L15.4271 13.8014C14.2191 14.1126 13.7204 14.2403 13.3577 14.7856C13.0217 15.2964 13.0831 15.9375 13.4644 17.1799L13.5524 17.4592C13.7044 17.9434 13.8857 18.518 13.9791 19.0607C14.0964 19.7364 14.1284 20.5823 13.7017 21.4017C13.3397 22.1348 12.7607 22.7393 12.043 23.1335C11.4881 23.4167 10.8896 23.6055 10.2723 23.6921L10.091 23.7241C9.13629 23.8917 8.65095 23.9768 8.18427 24.4743C7.81893 24.8653 7.59226 25.5437 7.46159 26.528C7.41003 26.927 7.37003 27.3314 7.34158 27.741L7.32292 27.9592C7.29316 28.4327 7.23169 28.9038 7.13891 29.3691L7.07224 29.6617C8.72165 31.3952 10.7403 32.7371 12.9791 33.5883C12.4777 34.3331 12.0119 35.1028 11.5817 35.8974C8.15571 34.4952 5.22521 32.1082 3.16288 29.04C1.10056 25.9718 -0.000387702 22.361 6.88039e-05 18.6669ZM2.6668 18.6669C2.662 21.4408 3.38558 24.1676 4.76552 26.5759L4.81352 26.1768C4.95752 25.0994 5.2642 23.6948 6.23222 22.66C7.33892 21.4788 8.69362 21.2554 9.5603 21.1144L9.80564 21.0718C10.1381 21.0311 10.462 20.9387 10.7657 20.7978C11.0184 20.6557 11.2179 20.4353 11.3337 20.17C11.3737 20.0982 11.4217 19.9306 11.3497 19.5182C11.2648 19.1123 11.1561 18.7117 11.0243 18.3184L10.9123 17.962C10.5657 16.8314 10.0243 14.9958 11.1283 13.3225C12.0884 11.8674 13.6324 11.4976 14.6324 11.2555L14.9364 11.181C15.9951 10.907 16.6218 10.649 17.0565 9.72585C17.6245 8.52342 17.3765 6.90067 16.7871 5.33645C16.4768 4.52307 16.093 3.73951 15.6405 2.99543C11.9895 3.69705 8.69751 5.64513 6.32998 8.50499C3.96245 11.3648 2.66722 14.9579 2.6668 18.6669ZM39.801 20.6355C39.6819 20.4424 39.5153 20.2828 39.3169 20.172C39.1185 20.0612 38.895 20.0028 38.6677 20.0024H38.6464L38.577 19.9944L38.3343 19.9465C38.0668 19.8842 37.8009 19.815 37.537 19.739L37.2837 19.6699C36.5418 19.455 35.794 19.2616 35.0409 19.0899C32.4608 18.4966 29.7965 18.3589 27.1687 18.6829C23.9633 19.0819 21.5126 20.1673 19.8406 21.7209C18.1605 23.2878 17.3338 25.2777 17.3338 27.3074C17.3356 27.7951 17.3694 28.2562 17.4352 28.6907C20.2352 26.254 23.6887 24.2827 27.5047 22.7584C27.6674 22.6934 27.8413 22.661 28.0165 22.6631C28.1917 22.6652 28.3648 22.7016 28.5259 22.7704C28.687 22.8392 28.8329 22.939 28.9553 23.0641C29.0778 23.1891 29.1743 23.337 29.2395 23.4993C29.3046 23.6616 29.3371 23.835 29.335 24.0098C29.3329 24.1846 29.2963 24.3573 29.2274 24.518C29.1584 24.6787 29.0584 24.8242 28.933 24.9464C28.8077 25.0685 28.6594 25.1648 28.4968 25.2298C26.3714 26.0784 24.406 27.0574 22.6353 28.1614C18.2299 30.7258 15.4858 34.0192 13.4751 38.0309C13.3903 38.1877 13.338 38.3598 13.3212 38.5372C13.3044 38.7145 13.3235 38.8934 13.3774 39.0633C13.4312 39.2331 13.5187 39.3904 13.6347 39.5259C13.7506 39.6614 13.8927 39.7722 14.0524 39.8519C14.2121 39.9316 14.3862 39.9784 14.5644 39.9897C14.7426 40.0009 14.9213 39.9764 15.0898 39.9174C15.2583 39.8585 15.4133 39.7664 15.5454 39.6466C15.6776 39.5268 15.7842 39.3817 15.8591 39.22C16.8832 37.1823 18.1072 35.3493 19.7206 33.7186C19.7739 33.8197 19.8361 33.9297 19.9072 34.0485C20.2006 34.5433 20.6539 35.2057 21.2726 35.8734C22.5126 37.2035 24.51 38.6241 27.3341 38.6241C29.0728 38.6241 30.5182 38.1825 31.7022 37.411C32.8755 36.6502 33.7236 35.6154 34.3582 34.53C35.3396 32.854 35.9023 30.8588 36.3183 29.3798C36.4232 29.0055 36.5201 28.6712 36.609 28.3768C37.0703 26.8765 37.745 25.5304 38.369 24.429C38.6872 23.8792 38.9761 23.3995 39.2357 22.9898L39.2784 22.9207C39.4864 22.5984 39.6804 22.2674 39.8597 21.9284C39.9611 21.7257 40.0089 21.5006 39.9986 21.2744C39.9884 21.0481 39.9204 20.8282 39.801 20.6355Z" fill="white"/>
</svg>
