<svg width="257" height="40" viewBox="0 0 257 40" fill="none" xmlns="http://www.w3.org/2000/svg">
<g clip-path="url(#clip0_354_102)">
<path d="M241.886 1.53137L257 37.6889H251.946L248.933 30.4962H229.25L226.237 37.6403H223.175L238.289 1.53137H241.886ZM229.882 28.9897H248.301L239.067 7.02303L229.882 28.9897Z" fill="#111111"/>
<path d="M204.06 7.55762C204.06 8.95079 204.352 10.2306 204.935 11.3969C205.551 12.5309 206.345 13.5191 207.317 14.3614C208.288 15.2038 209.358 16.0138 210.524 16.7914C211.69 17.569 212.857 18.3465 214.023 19.1241C215.19 19.9017 216.259 20.7117 217.231 21.5541C218.203 22.364 218.98 23.336 219.563 24.47C220.179 25.5716 220.487 26.7703 220.487 28.0663C220.487 30.1722 219.904 32.0352 218.737 33.6552C217.603 35.2751 216.178 36.4739 214.461 37.2515C212.743 37.9967 210.913 38.3692 208.969 38.3692C207.9 38.3692 206.831 38.2234 205.761 37.9319C204.725 37.6727 203.834 37.3487 203.088 36.9599C202.343 36.5711 201.663 36.1823 201.047 35.7935C200.464 35.3723 200.01 35.0321 199.686 34.7729L199.249 34.3355L200.513 31.1766C201.29 32.2134 202.295 33.153 203.526 33.9954C204.789 34.8377 206.085 35.4371 207.414 35.7935C208.774 36.1175 210.038 36.2309 211.204 36.1337C212.403 36.0041 213.375 35.4533 214.12 34.4813C214.898 33.477 215.287 32.1162 215.287 30.399C215.287 29.2003 214.995 28.0825 214.412 27.0457C213.829 26.009 213.067 25.1018 212.128 24.3242C211.221 23.5466 210.2 22.8014 209.066 22.0887C207.964 21.3435 206.847 20.5983 205.713 19.8531C204.579 19.1079 203.542 18.3141 202.602 17.4718C201.695 16.6294 200.95 15.625 200.367 14.4586C199.784 13.2923 199.492 12.0125 199.492 10.6193C199.492 9.97136 199.573 9.29098 199.735 8.5782C199.897 7.83301 200.205 7.03923 200.658 6.19685C201.144 5.32208 201.744 4.5607 202.457 3.91271C203.202 3.23233 204.206 2.66535 205.47 2.21176C206.733 1.75817 208.159 1.53137 209.746 1.53137C211.334 1.53137 212.76 1.64477 214.023 1.87156C215.287 2.09836 216.259 2.37375 216.939 2.69774C217.619 2.98934 218.17 3.29713 218.591 3.62112C219.045 3.94511 219.353 4.22051 219.515 4.4473L219.709 4.78749L217.522 8.09221C216.939 7.08783 216.097 6.19686 214.995 5.41928C213.894 4.6417 212.727 4.10711 211.496 3.81552C210.265 3.52392 209.082 3.41053 207.948 3.47532C206.814 3.54012 205.875 3.92891 205.13 4.64169C204.417 5.35448 204.06 6.32645 204.06 7.55762Z" fill="#111111"/>
<path d="M180.805 1.53137L195.919 37.6889H190.865L187.852 30.4962H168.169L165.156 37.6403H162.095L177.209 1.53137H180.805ZM168.801 28.9897H187.22L177.986 7.02303L168.801 28.9897Z" fill="#111111"/>
<path d="M158.49 31.9542L159.316 32.586C159.252 32.748 159.154 32.9586 159.025 33.2178C158.895 33.477 158.523 33.9468 157.907 34.6271C157.292 35.3075 156.563 35.9069 155.72 36.4253C154.91 36.9113 153.728 37.3649 152.172 37.7861C150.65 38.2072 148.965 38.4178 147.118 38.4178C144.364 38.4178 141.837 38.0453 139.537 37.3001C137.236 36.5549 135.195 35.4533 133.413 33.9954C131.664 32.505 130.287 30.561 129.282 28.1635C128.278 25.7336 127.776 22.9796 127.776 19.9017C127.776 17.4394 128.148 15.1714 128.894 13.0979C129.639 11.0243 130.611 9.29098 131.81 7.89781C133.008 6.50465 134.353 5.32208 135.843 4.3501C137.366 3.34573 138.873 2.63295 140.363 2.21176C141.853 1.75817 143.295 1.53137 144.688 1.53137C146.535 1.53137 148.301 1.66097 149.986 1.92016C151.67 2.17936 153.047 2.48715 154.116 2.84354C155.186 3.19993 156.125 3.57252 156.935 3.96131C157.745 4.3177 158.328 4.6093 158.685 4.83609L159.219 5.22488L158.004 9.30718C157.972 9.20998 157.923 9.09658 157.859 8.96699C157.794 8.83739 157.599 8.5782 157.275 8.1894C156.984 7.80062 156.627 7.44422 156.206 7.12023C155.817 6.76384 155.25 6.37505 154.505 5.95386C153.792 5.53267 152.982 5.17628 152.075 4.88469C151.2 4.5607 150.099 4.3015 148.771 4.10711C147.475 3.88031 146.081 3.76692 144.591 3.76692C142.809 3.76692 141.205 4.12331 139.78 4.83609C138.387 5.51647 137.269 6.40745 136.426 7.50902C135.584 8.57819 134.888 9.84176 134.337 11.2997C133.786 12.7577 133.397 14.1833 133.17 15.5764C132.976 16.9372 132.879 18.3303 132.879 19.7559C132.879 24.6158 134.272 28.6657 137.058 31.9056C139.877 35.1131 143.344 36.7169 147.458 36.7169C149.176 36.7169 150.731 36.5549 152.124 36.2309C153.517 35.8745 154.586 35.4695 155.331 35.0159C156.077 34.5623 156.708 34.1088 157.227 33.6552C157.745 33.1692 158.085 32.7642 158.247 32.4402L158.49 31.9542Z" fill="#111111"/>
<path d="M116.395 1.53137H119.554L119.117 37.6403L92.5334 12.9521L92.2904 37.6403H89.1801L89.5203 1.62857L116.152 28.2121L116.395 1.53137Z" fill="#111111"/>
<path d="M62.2894 0.802246C65.6913 0.802246 68.8178 1.64463 71.669 3.32938C74.5525 4.98174 76.8204 7.24969 78.4728 10.1332C80.1576 13.0167 80.9999 16.1433 80.9999 19.5128C80.9999 22.9147 80.1576 26.0574 78.4728 28.9409C76.8204 31.7921 74.5525 34.06 71.669 35.7448C68.8178 37.3971 65.6913 38.2233 62.2894 38.2233C58.8875 38.2233 55.7448 37.3971 52.8613 35.7448C50.0101 34.06 47.7422 31.7921 46.0574 28.9409C44.4051 26.0574 43.5789 22.9147 43.5789 19.5128C43.5789 16.1433 44.4051 13.0167 46.0574 10.1332C47.7422 7.24969 50.0101 4.98174 52.8613 3.32938C55.7448 1.64463 58.8875 0.802246 62.2894 0.802246ZM75.0223 20.1932C75.1843 17.0504 74.7631 14.1345 73.7587 11.4454C72.7543 8.75625 71.3126 6.6017 69.4334 4.98174C67.5543 3.32938 65.4645 2.43841 63.1642 2.30881C60.8639 2.21161 58.6931 2.87579 56.652 4.30136C54.6432 5.72692 52.9909 7.73567 51.6949 10.3276C50.4313 12.8871 49.7185 15.7383 49.5565 18.881C49.3945 21.9913 49.8157 24.9072 50.8201 27.6288C51.8245 30.3179 53.2662 32.4886 55.1454 34.141C57.0245 35.761 59.1143 36.6357 61.4146 36.7653C63.715 36.8625 65.8695 36.1984 67.8783 34.7728C69.9194 33.3472 71.5718 31.3385 72.8353 28.7465C74.1313 26.1546 74.8603 23.3035 75.0223 20.1932Z" fill="#111111"/>
<path d="M35.5229 2.98934L39.022 37.6403H34.5509L31.9266 11.3969L20.6516 37.6403H16.7637L6.801 11.6399L4.17667 37.6403H1.01775L4.32246 5.17628L2.9617 1.53137H7.72438L19.4367 32.2458L32.6069 1.53137H36.1547L35.5229 2.98934Z" fill="#111111"/>
</g>
<defs>
<clipPath id="clip0_354_102">
<rect width="257" height="40" fill="white"/>
</clipPath>
</defs>
</svg>
